<?xml version="1.0" encoding="UTF-8"?>
<svg fill="none" className="fill-current" viewBox="0 0 18 18" xmlns="http://www.w3.org/2000/svg">
<path d="m13.754 2.475h-2.1656v-0.47812c0-0.84375-0.675-1.5188-1.5188-1.5188h-2.1656c-0.84375 0-1.5188 0.675-1.5188 1.5188v0.47812h-2.1656c-0.81562 0-1.4906 0.675-1.4906 1.4906v0.84375c0 0.61875 0.36562 1.125 0.9 1.35l0.45 9.3094c0.05625 1.1531 1.0125 2.0531 2.1656 2.0531h5.4563c1.1531 0 2.1094-0.9 2.1656-2.0531l0.4781-9.3375c0.5344-0.225 0.9-0.75937 0.9-1.35v-0.84375c0-0.7875-0.675-1.4625-1.4906-1.4625zm-6.075-0.47812c0-0.14063 0.1125-0.25313 0.25312-0.25313h2.1657c0.1406 0 0.2531 0.1125 0.2531 0.25313v0.47812h-2.6438v-0.47812h-0.02812zm-3.6562 1.9688c0-0.1125 0.08437-0.225 0.225-0.225h9.5062c0.1125 0 0.225 0.08437 0.225 0.225v0.84375c0 0.1125-0.0844 0.225-0.225 0.225h-9.5062c-0.1125 0-0.225-0.08438-0.225-0.225v-0.84375zm7.7062 12.291h-5.4562c-0.47813 0-0.87188-0.3657-0.9-0.8719l-0.42188-9.1125h8.1281l-0.4219 9.1125c-0.0562 0.4781-0.45 0.8719-0.9281 0.8719z" fill=""/>
<path d="m9.0004 9.1126c-0.3375 0-0.64687 0.28125-0.64687 0.64687v3.5719c0 0.3375 0.28125 0.6469 0.64687 0.6469 0.3375 0 0.64688-0.2813 0.64688-0.6469v-3.5719c0-0.36562-0.30938-0.64687-0.64688-0.64687z" fill=""/>
<path d="m11.25 9.675c-0.3656-0.02812-0.6469 0.225-0.675 0.59066l-0.1688 2.475c-0.0281 0.3375 0.225 0.6468 0.5907 0.675h0.0562c0.3375 0 0.6188-0.2532 0.6188-0.5907l0.1687-2.475c0-0.36558-0.2531-0.64683-0.5906-0.67496z" fill=""/>
<path d="m6.7224 9.675c-0.3375 0.02813-0.61875 0.33746-0.59063 0.67496l0.19688 2.475c0.02813 0.3375 0.30938 0.5907 0.61875 0.5907h0.05625c0.3375-0.0282 0.61875-0.3375 0.59063-0.675l-0.19688-2.475c0-0.36566-0.30937-0.61878-0.675-0.59066z" fill=""/>
</svg>
